<mxfile host="app.diagrams.net" modified="2021-08-02T19:25:53.342Z" agent="5.0 (Macintosh; Intel Mac OS X 10_15_7) AppleWebKit/605.1.15 (KHTML, like Gecko) Version/14.1.2 Safari/605.1.15" etag="1MOlibs6lpQOUAiL98dl" version="14.9.3" type="github">
  <diagram name="Page-1" id="c7488fd3-1785-93aa-aadb-54a6760d102a">
    <mxGraphModel dx="1161" dy="674" grid="0" gridSize="10" guides="1" tooltips="1" connect="1" arrows="1" fold="1" page="1" pageScale="1" pageWidth="1169" pageHeight="827" background="none" math="0" shadow="0">
      <root>
        <mxCell id="0" />
        <mxCell id="1" parent="0" />
        <mxCell id="2b4e8129b02d487f-1" value="VBA_PumpPerformance" style="swimlane;html=1;childLayout=stackLayout;horizontal=1;startSize=20;horizontalStack=0;rounded=0;shadow=0;labelBackgroundColor=none;strokeWidth=1;fontFamily=Helvetica;fontSize=12;align=center;" parent="1" vertex="1">
          <mxGeometry x="10" y="10" width="1150" height="810" as="geometry" />
        </mxCell>
        <mxCell id="2b4e8129b02d487f-2" value="DataSheet" style="swimlane;html=1;startSize=20;horizontal=0;fontFamily=Helvetica;" parent="2b4e8129b02d487f-1" vertex="1">
          <mxGeometry y="20" width="1150" height="210" as="geometry" />
        </mxCell>
        <mxCell id="2b4e8129b02d487f-18" style="edgeStyle=orthogonalEdgeStyle;rounded=0;html=1;labelBackgroundColor=none;startArrow=none;startFill=0;startSize=5;endArrow=classicThin;endFill=1;endSize=5;jettySize=auto;orthogonalLoop=1;strokeWidth=1;fontFamily=Helvetica;fontSize=12;" parent="2b4e8129b02d487f-2" source="2b4e8129b02d487f-5" target="2b4e8129b02d487f-6" edge="1">
          <mxGeometry relative="1" as="geometry" />
        </mxCell>
        <mxCell id="2b4e8129b02d487f-5" value="" style="ellipse;whiteSpace=wrap;html=1;rounded=0;shadow=0;labelBackgroundColor=none;strokeWidth=1;fontFamily=Helvetica;fontSize=12;align=center;" parent="2b4e8129b02d487f-2" vertex="1">
          <mxGeometry x="70" y="60" width="40" height="40" as="geometry" />
        </mxCell>
        <mxCell id="2b4e8129b02d487f-6" value="Criação da interface de entrada dos dados de projeto" style="rounded=1;whiteSpace=wrap;html=1;shadow=0;labelBackgroundColor=none;strokeWidth=1;fontFamily=Helvetica;fontSize=12;align=center;" parent="2b4e8129b02d487f-2" vertex="1">
          <mxGeometry x="40" y="129.99999999999997" width="100" height="60" as="geometry" />
        </mxCell>
        <mxCell id="_Npp1PTNY8HX3L-tcrCO-1" value="&lt;b style=&quot;font-size: 12px;&quot;&gt;&lt;font style=&quot;font-size: 12px;&quot;&gt;Início&lt;/font&gt;&lt;/b&gt;&lt;br style=&quot;font-size: 12px;&quot;&gt;instalação&lt;br style=&quot;font-size: 12px;&quot;&gt;do Add-in" style="text;html=1;strokeColor=none;fillColor=none;align=left;verticalAlign=middle;whiteSpace=wrap;rounded=0;fontFamily=Helvetica;fontSize=12;" vertex="1" parent="2b4e8129b02d487f-2">
          <mxGeometry x="30" width="120" height="50" as="geometry" />
        </mxCell>
        <mxCell id="_Npp1PTNY8HX3L-tcrCO-12" value="Entrada dos dados gemétricos da bomba" style="rounded=1;whiteSpace=wrap;html=1;shadow=0;labelBackgroundColor=none;strokeWidth=1;fontFamily=Helvetica;fontSize=12;align=center;" vertex="1" parent="2b4e8129b02d487f-2">
          <mxGeometry x="340" y="10" width="100" height="60" as="geometry" />
        </mxCell>
        <mxCell id="_Npp1PTNY8HX3L-tcrCO-19" value="Criação dos &amp;nbsp;campos nomeados" style="rounded=1;whiteSpace=wrap;html=1;shadow=0;labelBackgroundColor=none;strokeWidth=1;fontFamily=Helvetica;fontSize=12;align=center;" vertex="1" parent="2b4e8129b02d487f-2">
          <mxGeometry x="190" y="130" width="100" height="60" as="geometry" />
        </mxCell>
        <mxCell id="_Npp1PTNY8HX3L-tcrCO-20" style="edgeStyle=orthogonalEdgeStyle;rounded=0;orthogonalLoop=1;jettySize=auto;html=1;fontFamily=Helvetica;fontSize=12;" edge="1" parent="2b4e8129b02d487f-2" source="2b4e8129b02d487f-6" target="_Npp1PTNY8HX3L-tcrCO-19">
          <mxGeometry relative="1" as="geometry" />
        </mxCell>
        <mxCell id="_Npp1PTNY8HX3L-tcrCO-2" value="Entrada dos dados de projeto" style="rounded=1;whiteSpace=wrap;html=1;shadow=0;labelBackgroundColor=none;strokeWidth=1;fontFamily=Helvetica;fontSize=12;align=center;" vertex="1" parent="2b4e8129b02d487f-2">
          <mxGeometry x="190" y="9.999999999999972" width="100" height="60" as="geometry" />
        </mxCell>
        <mxCell id="_Npp1PTNY8HX3L-tcrCO-6" style="edgeStyle=orthogonalEdgeStyle;rounded=0;orthogonalLoop=1;jettySize=auto;html=1;entryX=0;entryY=0.5;entryDx=0;entryDy=0;fontFamily=Helvetica;fontSize=12;" edge="1" parent="2b4e8129b02d487f-2" source="_Npp1PTNY8HX3L-tcrCO-2" target="_Npp1PTNY8HX3L-tcrCO-12">
          <mxGeometry relative="1" as="geometry" />
        </mxCell>
        <mxCell id="_Npp1PTNY8HX3L-tcrCO-21" style="edgeStyle=orthogonalEdgeStyle;rounded=0;orthogonalLoop=1;jettySize=auto;html=1;fontFamily=Helvetica;fontSize=12;entryX=0.5;entryY=1;entryDx=0;entryDy=0;" edge="1" parent="2b4e8129b02d487f-2" source="_Npp1PTNY8HX3L-tcrCO-19" target="_Npp1PTNY8HX3L-tcrCO-2">
          <mxGeometry relative="1" as="geometry">
            <mxPoint x="180" y="250" as="targetPoint" />
          </mxGeometry>
        </mxCell>
        <mxCell id="2b4e8129b02d487f-3" value="TestData" style="swimlane;html=1;startSize=20;horizontal=0;fontFamily=Helvetica;" parent="2b4e8129b02d487f-1" vertex="1">
          <mxGeometry y="230" width="1150" height="230" as="geometry" />
        </mxCell>
        <mxCell id="_Npp1PTNY8HX3L-tcrCO-7" value="Entrada das medições de teste" style="rounded=1;whiteSpace=wrap;html=1;shadow=0;labelBackgroundColor=none;strokeWidth=1;fontFamily=Helvetica;fontSize=12;align=center;" vertex="1" parent="2b4e8129b02d487f-3">
          <mxGeometry x="50" y="120" width="100" height="60" as="geometry" />
        </mxCell>
        <mxCell id="_Npp1PTNY8HX3L-tcrCO-9" value="Entrada dos dados do aparato de testes" style="rounded=1;whiteSpace=wrap;html=1;shadow=0;labelBackgroundColor=none;strokeWidth=1;fontFamily=Helvetica;fontSize=12;align=center;" vertex="1" parent="2b4e8129b02d487f-3">
          <mxGeometry x="50" y="20" width="100" height="60" as="geometry" />
        </mxCell>
        <mxCell id="_Npp1PTNY8HX3L-tcrCO-11" style="edgeStyle=orthogonalEdgeStyle;rounded=0;orthogonalLoop=1;jettySize=auto;html=1;entryX=0.5;entryY=0;entryDx=0;entryDy=0;fontFamily=Helvetica;fontSize=12;" edge="1" parent="2b4e8129b02d487f-3" source="_Npp1PTNY8HX3L-tcrCO-9" target="_Npp1PTNY8HX3L-tcrCO-7">
          <mxGeometry relative="1" as="geometry" />
        </mxCell>
        <mxCell id="2b4e8129b02d487f-4" value="Classes" style="swimlane;html=1;startSize=20;horizontal=0;fontFamily=Helvetica;" parent="2b4e8129b02d487f-1" vertex="1">
          <mxGeometry y="460" width="1150" height="240" as="geometry" />
        </mxCell>
        <mxCell id="2b4e8129b02d487f-16" value="" style="shape=mxgraph.bpmn.shape;html=1;verticalLabelPosition=bottom;labelBackgroundColor=#ffffff;verticalAlign=top;perimeter=rhombusPerimeter;background=gateway;outline=none;symbol=parallelGw;rounded=1;shadow=0;strokeWidth=1;fontFamily=Helvetica;fontSize=12;align=center;" parent="2b4e8129b02d487f-4" vertex="1">
          <mxGeometry x="441" y="142.00000000000006" width="40" height="40" as="geometry" />
        </mxCell>
        <mxCell id="_Npp1PTNY8HX3L-tcrCO-25" value="Calcular potência hidráulica" style="rounded=1;whiteSpace=wrap;html=1;shadow=0;labelBackgroundColor=none;strokeWidth=1;fontFamily=Helvetica;fontSize=12;align=center;" vertex="1" parent="2b4e8129b02d487f-4">
          <mxGeometry x="255" y="40" width="100" height="60" as="geometry" />
        </mxCell>
        <mxCell id="_Npp1PTNY8HX3L-tcrCO-24" value="Calcular Head" style="rounded=1;whiteSpace=wrap;html=1;shadow=0;labelBackgroundColor=none;strokeWidth=1;fontFamily=Helvetica;fontSize=12;align=center;" vertex="1" parent="2b4e8129b02d487f-4">
          <mxGeometry x="50" y="40" width="100" height="60" as="geometry" />
        </mxCell>
        <mxCell id="_Npp1PTNY8HX3L-tcrCO-27" style="edgeStyle=orthogonalEdgeStyle;rounded=0;orthogonalLoop=1;jettySize=auto;html=1;entryX=0;entryY=0.5;entryDx=0;entryDy=0;fontFamily=Helvetica;fontSize=12;" edge="1" parent="2b4e8129b02d487f-4" source="_Npp1PTNY8HX3L-tcrCO-24" target="_Npp1PTNY8HX3L-tcrCO-25">
          <mxGeometry relative="1" as="geometry" />
        </mxCell>
        <mxCell id="_Npp1PTNY8HX3L-tcrCO-29" value="Gerar gráfico de performance" style="rounded=1;whiteSpace=wrap;html=1;shadow=0;labelBackgroundColor=none;strokeWidth=1;fontFamily=Helvetica;fontSize=12;align=center;" vertex="1" parent="2b4e8129b02d487f-4">
          <mxGeometry x="411" y="40" width="100" height="60" as="geometry" />
        </mxCell>
        <mxCell id="_Npp1PTNY8HX3L-tcrCO-28" style="edgeStyle=orthogonalEdgeStyle;rounded=0;orthogonalLoop=1;jettySize=auto;html=1;fontFamily=Helvetica;fontSize=12;entryX=0;entryY=0.5;entryDx=0;entryDy=0;" edge="1" parent="2b4e8129b02d487f-4" source="_Npp1PTNY8HX3L-tcrCO-25" target="_Npp1PTNY8HX3L-tcrCO-29">
          <mxGeometry relative="1" as="geometry">
            <mxPoint x="437.2352941176471" y="64.23529411764707" as="targetPoint" />
          </mxGeometry>
        </mxCell>
        <mxCell id="_Npp1PTNY8HX3L-tcrCO-26" style="edgeStyle=orthogonalEdgeStyle;rounded=0;orthogonalLoop=1;jettySize=auto;html=1;entryX=0.5;entryY=0;entryDx=0;entryDy=0;fontFamily=Helvetica;fontSize=12;" edge="1" parent="2b4e8129b02d487f-1" source="_Npp1PTNY8HX3L-tcrCO-7" target="_Npp1PTNY8HX3L-tcrCO-24">
          <mxGeometry relative="1" as="geometry" />
        </mxCell>
        <mxCell id="_Npp1PTNY8HX3L-tcrCO-10" style="edgeStyle=orthogonalEdgeStyle;rounded=0;orthogonalLoop=1;jettySize=auto;html=1;entryX=1;entryY=0.5;entryDx=0;entryDy=0;fontFamily=Helvetica;fontSize=12;" edge="1" parent="1" source="_Npp1PTNY8HX3L-tcrCO-4" target="_Npp1PTNY8HX3L-tcrCO-9">
          <mxGeometry relative="1" as="geometry">
            <Array as="points">
              <mxPoint x="400" y="290" />
            </Array>
          </mxGeometry>
        </mxCell>
        <mxCell id="_Npp1PTNY8HX3L-tcrCO-4" value="Criação da interface de entrada dos dados de teste" style="rounded=1;whiteSpace=wrap;html=1;shadow=0;labelBackgroundColor=none;strokeWidth=1;fontFamily=Helvetica;fontSize=12;align=center;" vertex="1" parent="1">
          <mxGeometry x="350" y="159.99999999999997" width="100" height="60" as="geometry" />
        </mxCell>
        <mxCell id="_Npp1PTNY8HX3L-tcrCO-22" style="edgeStyle=orthogonalEdgeStyle;rounded=0;orthogonalLoop=1;jettySize=auto;html=1;fontFamily=Helvetica;fontSize=12;" edge="1" parent="1" source="_Npp1PTNY8HX3L-tcrCO-12" target="_Npp1PTNY8HX3L-tcrCO-4">
          <mxGeometry relative="1" as="geometry" />
        </mxCell>
      </root>
    </mxGraphModel>
  </diagram>
</mxfile>
